<?xml version="1.0" encoding="utf-8"?>
<!-- Generator: Adobe Illustrator 19.2.1, SVG Export Plug-In . SVG Version: 6.00 Build 0)  -->
<svg version="1.1" id="Layer_1" xmlns="http://www.w3.org/2000/svg" xmlns:xlink="http://www.w3.org/1999/xlink" x="0px" y="0px"
	 viewBox="0 0 600 600" style="enable-background:new 0 0 600 600;" xml:space="preserve">
<style type="text/css">
	.st0{fill:#848484;}
</style>
<g>
	<path class="st0" d="M261.8,319.2c0.7-0.7,1.3-1.3,1.9-1.8c29.8-29.8,59.5-59.6,89.3-89.4c15.6-15.6,31.2-31.3,46.8-46.9
		c8.8-8.8,21-8.8,29.8,0c9.4,9.3,18.7,18.7,28,28c7.8,7.9,8.2,19.7,0.8,28c-1.6,1.8-3.4,3.6-5.2,5.3c-58.7,58.7-117.3,117.3-176,176
		c-7.1,7.1-15.9,9-24.2,4.9c-2.4-1.2-4.6-2.9-6.4-4.8c-34.4-34.4-68.8-68.8-103.2-103.2c-7.8-7.8-9.2-18-3.7-26.4
		c0.7-1.1,1.5-2.1,2.4-3c9.8-9.8,19.5-19.8,29.5-29.4c8.3-8,20.3-7.5,28.5,0.7c15.9,15.9,31.7,31.8,47.6,47.7
		C252.2,309.7,256.9,314.3,261.8,319.2z"/>
</g>
</svg>
